<?xml version="1.0" encoding="utf-8"?>
<!DOCTYPE svg PUBLIC "-//W3C//DTD SVG 1.1//EN" "http://www.w3.org/Graphics/SVG/1.1/DTD/svg11.dtd">
<svg version="1.1" id="Layer_1" xmlns="http://www.w3.org/2000/svg" xmlns:xlink="http://www.w3.org/1999/xlink" x="0px" y="0px"
	width="50px" height="31.2px" viewBox="0 9.8 50 31.2" enable-background="new 0 9.8 50 31.2" xml:space="preserve">
<path fill="#0057B7" d="M37.9,41c-0.301,0-0.6-0.1-0.801-0.3L36.9,40.6c-0.4-0.3-0.9-0.699-1.301-1
	c-0.199-0.199-0.299-0.399-0.4-0.5C35.1,39,34.9,38.9,34.801,38.7c-1.602-1.3-2-1.7-2.201-2.101C32.5,36.4,32.4,36.3,32.1,36
	C32,35.9,31.9,35.9,31.9,35.8c-1-0.2-4.301-1-4.701-1.2C26.9,34.4,26.6,34,26.699,33.7c0-0.101,0-0.101,0-0.2
	c-0.1-0.2-0.1-0.4-0.199-0.6c-0.199,0-0.4,0.1-0.5,0.1c-0.301,0.6-0.8,1-1.4,1.2c-0.5,0.1-1,0-1.3-0.3C23,34.1,22.7,34.2,22.5,34.3
	c-0.6,0.2-1.1,0-1.3-0.2C20.9,33.9,19.3,33.4,18.8,33.3H18.7c-0.1,0-0.2,0-0.3,0c-0.9,0.3-1.7-0.1-2-0.3c-0.1,0-0.2-0.1-0.3-0.2
	c-0.2,0.101-0.4,0.3-0.6,0.4l-0.3,0.2C15,33.6,14.6,33.6,14.4,33.5c-0.3-0.1-0.5-0.3-0.6-0.6L13.7,32.6c-0.1,0-0.1,0.101-0.2,0.101
	c-0.6,0.399-1.4,0.2-2.8-0.2c-0.3-0.1-0.7-0.2-0.8-0.2c-0.2,0-0.3-0.1-0.4-0.1c-0.2,0.1-0.4,0.2-0.6,0.2l-0.4,0.1
	c-0.4,0.1-0.8,0.1-1.2,0.2C7.2,33,7.1,33.1,7,33.1c-0.4,0.4-0.8,0.5-1.1,0.4c-0.1,0-0.2,0-0.4-0.1c-0.3,0.1-0.8,0.199-1.1,0.3
	c-0.2,0.399-0.6,1.1-0.6,1.2c-0.4,1-1,1.3-2,0.899C0.8,35.4-0.1,32.7,0,32c0-0.1,0.2-0.7,0.3-1.5c0.3-1.7,0.6-2.7,0.7-3.3
	c-0.2-0.3-0.3-0.7-0.2-1.101c0-0.5,0.3-1,0.7-1.3c0.1-0.1,0.1-0.1,0.2-0.1c0.5-0.3,0.9-0.5,1-0.8C2.8,23.7,3,23.5,3.2,23.4
	c0-0.1,0-0.2,0-0.3C3.3,22.6,3.3,22,3.4,21.4v-0.3c0-0.3,0-0.4,1.4-2.8l0.1-0.2c0.1-0.3,0.3-0.5,0.4-0.8l0.2-0.4
	c0.5-0.9,6.3-2.5,6.4-2.5c0.5-0.1,1.1,0.1,1.4,0.5c0.3,0.4,0.3,1,0.1,1.5c0,0.1-0.1,0.2,0.2,0.6s1.8,1.9,2.3,2.3l0.4,0.4
	c0.2,0.2,0.3,0.4,0.5,1.3c0.1,0.4,0.3,1.2,0.399,1.6c0.2,0,0.5,0.1,0.601,0.2c0.3,0.2,0.899,0.7,1.3,1c0.2-0.3,0.5-0.5,0.8-0.6
	c0.6-0.2,1.2-0.6,1.8-1.1L21.8,22c0,0,0-0.1,0.1-0.1c0.1-0.2,0.3-0.5,0.4-0.7c0.2-0.3,0.5-0.5,0.7-0.6v-3.5
	c-0.1-0.1-0.2-0.2-0.3-0.4c-0.2-0.3-0.5-0.6-0.7-1c-0.2-0.4-0.6-1.3,0.4-2c0.3-0.2,0.9-0.5,3.299-1.5c0.801-0.3,1.701-0.7,2.201-1
	c0.1-0.4,0.199-0.7,0.299-0.9c0.201-0.3,0.5-0.5,0.9-0.5s0.701,0.2,0.9,0.5c0,0,0.1,0.2,0.199,0.4c0.301,0.7,0.4,1.1,0.602,1.4
	c0.6,0.2,1.199,0.5,1.898,0.9c0.102,0,0.201,0.1,0.301,0.1c0.199-0.1,0.301-0.2,0.4-0.2c0.5-0.2,1,0,1.299,0.3
	C35,13.6,35,14,34.801,14.5c0,0.1,0.1,0.4,0.199,0.5c0.199,0.2,1.1,1,1.9,1.6c0.199-0.2,0.4-0.3,0.6-0.4c1.6-1.1,2-0.9,2.301-0.7
	l0.1,0.1c0.299,0.2,0.799,0.4,1,1c0.6,0,1.199,0,1.799,0c0.701-0.1,1.301,0.3,1.602,0.9c0.1,0.2,0.199,0.4,0.199,0.6
	c0,0,0,0.1,0.199,0.1c0.4,0.2,0.701,0.5,1,0.7l0.201,0.2c0.1,0.1,0.4,0.3,0.5,0.7c0.1,0.3,0.199,0.7,0.299,1l0.102,0.2
	c0.1,0.5-0.102,0.9-0.102,1c-0.1,0.2-0.398,0.6-0.799,1c0.1,0.4,0.199,0.9,0.1,1.1c0,0.1,0,0.3-0.1,0.4c0.1,0,0.1,0.1,0.199,0.1
	l0.201,0.2c0.1,0.1,0.199,0.2,0.299,0.3c0.4,0.3,0.5,0.7,0.5,0.9c0,0.1,0,0.2,0,0.3c0.1,0,0.1,0.101,0.201,0.101L47.6,26.6
	c0.4,0.301,0.5,0.9,0.201,1.301c0,0.1,0.1,0.3,0.299,0.699C48.4,29.2,49.199,30.7,49.4,31c0.6,0.5,0.799,1.2,0.4,1.9
	c-0.4,0.8-3,3.199-3.801,3.899c0.1,0.7,0,1.601-0.6,2.101c-0.201,0.199-0.6,0.399-1.1,0.399c-0.301,0-0.602,0-0.9,0
	c-0.1,0-0.201,0-0.301,0L43,39.4c-0.4,0.3-0.801,0.3-1.199,0.199c-0.301-0.1-0.5-0.3-0.602-0.6l0,0c-0.1,0-0.299,0-0.299,0
	c-0.301,0.6-0.701,1-1,1.3c-0.4,0.4-0.9,0.4-1.201,0.3C38.5,40.7,38.301,40.8,38.1,40.9C38,41,37.9,41,37.9,41z M37.301,39.3
	L37.301,39.3L37.301,39.3z M40.9,39.1L40.9,39.1L40.9,39.1z M41,38.9L41,38.9L41,38.9z M44.301,37.4L44.301,37.4L44.301,37.4z
	M32,35.8L32,35.8L32,35.8z M26.9,34L26.9,34L26.9,34z M24.7,32.4L24.7,32.4L24.7,32.4z M7.4,32.4L7.4,32.4L7.4,32.4z M2,32.3
	L2,32.3L2,32.3z M6.7,31.9L6.7,31.9L6.7,31.9z M13.3,31.9L13.3,31.9L13.3,31.9z M5.5,31.8L5.5,31.8L5.5,31.8z M1.2,27.6L1.2,27.6
	L1.2,27.6z M20.4,25.3L20.4,25.3L20.4,25.3z M4.4,25L4.4,25L4.4,25z M4.4,25L4.4,25L4.4,25z M44.4,24.8L44.4,24.8L44.4,24.8z
	M44.1,23.9L44.1,23.9L44.1,23.9z M44.5,21.7C44.5,21.7,44.4,21.7,44.5,21.7C44.4,21.7,44.5,21.7,44.5,21.7z M44.699,20.8
	L44.699,20.8L44.699,20.8z M42.4,18.5L42.4,18.5L42.4,18.5z M7,18.2L7,18.2L7,18.2z M11.6,15.5L11.6,15.5L11.6,15.5z M34.199,14.8
	L34.199,14.8L34.199,14.8z"/>
</svg>
