<?xml version="1.0" encoding="utf-8"?>
<!DOCTYPE svg PUBLIC "-//W3C//DTD SVG 1.1//EN" "http://www.w3.org/Graphics/SVG/1.1/DTD/svg11.dtd">
<svg version="1.1" id="Layer_1" xmlns="http://www.w3.org/2000/svg" xmlns:xlink="http://www.w3.org/1999/xlink" x="0px" y="0px"
	width="391.748px" height="144.389px" viewBox="0 0 391.748 144.389" enable-background="new 0 0 391.748 144.389"
	xml:space="preserve">
<g>
	<g>
		<path fill="#FFFFFF" d="M132.555,82.899c-1.757,0.606-5.329,0.471-6.366,0.443c-2.586-0.071-6.499-1.373-10.643-2.753
			c-2.795-0.93-5.687-1.894-8.518-2.606c-4.841-1.216-8.049-1.588-10.628-1.888c-2.458-0.284-4.233-0.49-6.32-1.28
			c-0.934-0.355-1.017-1.165-0.985-1.616c0.101-1.391,1.559-3.309,4.524-4.234c1.088-0.34,2.301-0.525,3.586-0.55
			c3.947,0.042,7.602,0.741,10.021,1.206c2.026,0.386,2.871,0.537,3.423,0.365c0.314-0.098,0.487-0.283,0.578-0.419
			c0.147-0.23,0.176-0.506,0.076-0.758c-0.111-0.279-0.406-1.025-7.041-3.662c-4.275-1.699-8.827-3.21-12.479-4.149l-0.116-0.027
			l-0.12,0.002c-1.826,0.056-3.825,0.188-5.758,0.318c-5.159,0.345-10.493,0.704-13.582-0.314c-0.937-0.309-2.889-0.95-3.178-1.843
			c-0.04-0.124-0.159-0.49,0.36-1.235c0.092-0.05,0.378-0.192,1.117-0.422c4.524-1.412,16.124-3.747,26.268-4.232
			c5.622,0.233,15.803,5.795,25.955,8.497c1.65,0.438,7.171,0.301,11.351-1.003c2.373-0.741,2.522-3.391,2.233-4.832
			c-0.475-2.376-1.077-4.751-1.816-7.117C123.07,12.165,84.116-8.256,47.496,3.173C23.98,10.512,7.146,29.198,1.133,51.328
			c-0.556,2.049-1.123,5.919,2.691,4.737c1.776-0.552,5.33-0.472,6.365-0.444c2.587,0.071,6.499,1.374,10.642,2.75
			c2.797,0.932,5.689,1.895,8.519,2.608c4.841,1.217,8.051,1.589,10.63,1.888c2.457,0.285,4.232,0.491,6.319,1.282
			c0.934,0.355,1.019,1.165,0.985,1.615c-0.101,1.393-1.559,3.312-4.522,4.236c-1.087,0.339-2.301,0.523-3.586,0.549
			c-3.947-0.041-7.603-0.742-10.022-1.205c-2.026-0.388-2.87-0.538-3.422-0.365c-0.315,0.099-0.488,0.284-0.577,0.42
			c-0.149,0.229-0.178,0.506-0.079,0.759c0.112,0.279,0.407,1.024,7.043,3.66c4.275,1.7,8.823,3.211,12.478,4.147l0.115,0.03
			l0.121-0.004c1.825-0.056,3.824-0.187,5.756-0.317c5.16-0.346,10.495-0.703,13.581,0.314c0.938,0.309,2.891,0.951,3.179,1.843
			c0.04,0.124,0.159,0.491-0.361,1.235c-0.09,0.052-0.377,0.191-1.117,0.422c-4.523,1.412-16.123,3.748-26.267,4.232
			c-5.621-0.232-15.802-5.795-25.956-8.496c-1.511-0.402-6.148,0.277-10.254,0.826c-3.563,0.478-3.583,3.77-3.267,5.314
			c0.465,2.273,1.049,4.549,1.756,6.813c11.429,36.621,50.382,57.043,87.004,45.613c24.023-7.498,41.074-26.842,46.737-49.602
			C136.015,84.612,136.371,81.583,132.555,82.899z M60.359,69.849c-0.013,0.203-0.221,1.203-1.643,1.225
			c-2.846,0.084-6.264,0.701-9.604,1.307c-1.741,0.314-3.386,0.611-4.954,0.84C43.381,73.11,60.642,65.683,60.359,69.849z
			M62.353,76.027c-3.3-0.441-7.61-0.155-11.812,0.124c-1.874,0.127-3.812,0.258-5.574,0.313c-3.971-1.025-8.303-2.539-11.778-3.908
			c3.763,0.969,7.649,1.758,10.79,2.188l0.118,0.017l0.119-0.019c1.635-0.233,3.415-0.555,5.137-0.867
			c4.584-0.828,9.325-1.687,12.198-1.1c0.864,0.178,2.609,0.572,3.011,1.275C65.51,75.716,62.353,76.027,62.353,76.027z
			M71.82,64.913c-0.951-1.666,2.208-1.978,2.208-1.978c3.3,0.443,7.609,0.157,11.812-0.125c1.875-0.126,3.811-0.255,5.573-0.312
			c3.972,1.027,8.304,2.539,11.777,3.91c-3.762-0.97-7.648-1.758-10.789-2.188l-0.118-0.016l-0.118,0.017
			c-1.634,0.234-3.416,0.558-5.137,0.867c-4.584,0.83-9.323,1.688-12.197,1.099C73.964,66.011,72.22,65.615,71.82,64.913z
			M76.019,69.114c0.013-0.203,0.221-1.204,1.644-1.224c2.847-0.085,6.264-0.701,9.604-1.307c1.741-0.315,3.387-0.612,4.954-0.839
			C93,65.852,75.737,73.278,76.019,69.114z"/>
	</g>
	<g>
		<path fill="#FFFFFF" d="M184.811,4.54c-8.835,0-15.498,6.284-15.498,14.617c0,8.242,6.685,14.698,15.218,14.698
			c3.863,0,8.146-1.434,11.18-3.742c0.125-0.094,0.197-0.241,0.197-0.397v-6.521v-3.798V19.07c0-0.276-0.224-0.5-0.5-0.5h-9.816
			c-0.277,0-0.501,0.224-0.501,0.5v4.125c0,0.276,0.224,0.5,0.501,0.5h5.197v3.215c-1.898,1.087-4.047,1.706-5.938,1.706
			c-5.461,0-9.739-4.155-9.739-9.459c0-5.281,4.26-9.418,9.698-9.418c2.772,0,5.665,1.146,7.738,3.066
			c0.104,0.096,0.24,0.144,0.383,0.131c0.139-0.012,0.268-0.082,0.354-0.193l2.68-3.479c0.162-0.209,0.132-0.509-0.068-0.682
			C192.986,6.051,188.842,4.54,184.811,4.54z"/>
		<path fill="#FFFFFF" d="M223.683,24.022c3.582-1.625,5.545-4.905,5.545-9.304c0-6.393-4.293-10.059-11.777-10.059h-11.357
			c-0.277,0-0.5,0.224-0.5,0.5v27.995c0,0.276,0.223,0.5,0.5,0.5h4.719c0.275,0,0.5-0.224,0.5-0.5v-7.938h6.139
			c0.344,0,0.686-0.001,1.012-0.019l4.959,8.216c0.092,0.149,0.254,0.241,0.428,0.241h5.359c0.186,0,0.355-0.102,0.441-0.265
			c0.088-0.163,0.078-0.36-0.025-0.514L223.683,24.022z M211.312,9.899h6.139c4.18,0,6.299,1.661,6.299,4.938
			c0,3.41-2.119,5.14-6.299,5.14h-6.139V9.899z"/>
		<path fill="#FFFFFF" d="M239.011,33.655h4.719c0.277,0,0.5-0.224,0.5-0.5V5.16c0-0.276-0.223-0.5-0.5-0.5h-4.719
			c-0.275,0-0.5,0.224-0.5,0.5v27.995C238.511,33.432,238.736,33.655,239.011,33.655z"/>
		<path fill="#FFFFFF" d="M255.091,33.655h12.438c6.6,0,10.699-3.134,10.699-8.179c0-3.423-1.805-6.043-4.809-7.147
			c2.336-1.131,3.729-3.377,3.729-6.17c0-4.626-3.793-7.499-9.898-7.499h-12.158c-0.275,0-0.5,0.224-0.5,0.5v27.995
			C254.591,33.432,254.816,33.655,255.091,33.655z M267.009,16.258h-6.699V9.859h6.699c1.605,0,4.299,0.408,4.299,3.14
			C271.308,15.07,269.742,16.258,267.009,16.258z M260.31,21.417h6.699c3.369,0,5.379,1.293,5.379,3.46
			c0,3.114-3.369,3.579-5.379,3.579h-6.699V21.417z"/>
		<path fill="#FFFFFF" d="M311.626,5.16c0-0.276-0.223-0.5-0.5-0.5h-4.719c-0.277,0-0.5,0.224-0.5,0.5v16.397
			c0,4.42-2.58,7.059-6.898,7.059c-4.395,0-7.02-2.639-7.02-7.059V5.16c0-0.276-0.223-0.5-0.5-0.5h-4.719
			c-0.277,0-0.5,0.224-0.5,0.5v16.397c0,7.586,4.865,12.298,12.697,12.298c7.809,0,12.658-4.712,12.658-12.298V5.16z"/>
		<path fill="#FFFFFF" d="M172.133,83.322h4.719c0.276,0,0.5-0.224,0.5-0.5v-7.938h5.939c7.25,0,11.578-3.925,11.578-10.498
			c0-6.393-4.22-10.059-11.578-10.059h-11.158c-0.276,0-0.5,0.224-0.5,0.5v27.995C171.633,83.099,171.857,83.322,172.133,83.322z
			M183.092,59.566c4.152,0,6.258,1.661,6.258,4.938c0,3.41-2.105,5.14-6.258,5.14h-5.74V59.566H183.092z"/>
		<path fill="#FFFFFF" d="M215.308,54.627c-0.078-0.183-0.258-0.3-0.457-0.3h-4.84c-0.199,0-0.377,0.117-0.457,0.298L197.197,82.62
			c-0.068,0.155-0.055,0.334,0.037,0.476c0.094,0.142,0.25,0.227,0.42,0.227h4.918c0.201,0,0.383-0.12,0.461-0.305l2.551-6.015
			h13.455l2.551,6.015c0.078,0.185,0.26,0.305,0.459,0.305h5.039c0.17,0,0.326-0.085,0.42-0.227
			c0.092-0.141,0.107-0.319,0.039-0.474L215.308,54.627z M216.816,71.804h-9.049l4.523-10.658L216.816,71.804z"/>
		<path fill="#FFFFFF" d="M234.812,83.322h16.838c0.275,0,0.5-0.224,0.5-0.5v-4.279c0-0.276-0.225-0.5-0.5-0.5h-11.619V54.827
			c0-0.276-0.223-0.5-0.5-0.5h-4.719c-0.275,0-0.5,0.224-0.5,0.5v27.995C234.312,83.099,234.537,83.322,234.812,83.322z"/>
		<path fill="#FFFFFF" d="M268.15,47.148c0-0.276-0.223-0.5-0.5-0.5h-10.197c-0.277,0-0.5,0.224-0.5,0.5v3.319
			c0,0.276,0.223,0.5,0.5,0.5h10.197c0.277,0,0.5-0.224,0.5-0.5V47.148z"/>
		<path fill="#FFFFFF" d="M264.89,54.327h-4.719c-0.275,0-0.5,0.224-0.5,0.5v27.995c0,0.276,0.225,0.5,0.5,0.5h4.719
			c0.277,0,0.5-0.224,0.5-0.5V54.827C265.39,54.551,265.167,54.327,264.89,54.327z"/>
		<path fill="#FFFFFF" d="M287.73,54.327h-11.479c-0.275,0-0.5,0.224-0.5,0.5v27.995c0,0.276,0.225,0.5,0.5,0.5h11.357
			c8.748,0,15.098-6.098,15.098-14.498S296.408,54.327,287.73,54.327z M287.849,78.083h-6.379V59.566h6.18
			c5.301,0,9.299,3.997,9.299,9.298C296.949,74.206,293.123,78.083,287.849,78.083z"/>
		<path fill="#FFFFFF" d="M332.689,78.083h-16.168l16.352-19.535c0.074-0.091,0.115-0.204,0.115-0.321v-3.399
			c0-0.276-0.223-0.5-0.5-0.5h-22.916c-0.275,0-0.5,0.224-0.5,0.5v4.239c0,0.276,0.225,0.5,0.5,0.5h15.484l-16.387,19.535
			c-0.076,0.09-0.117,0.204-0.117,0.321v3.399c0,0.276,0.223,0.5,0.5,0.5h23.637c0.275,0,0.5-0.224,0.5-0.5v-4.239
			C333.189,78.307,332.964,78.083,332.689,78.083z"/>
		<path fill="#FFFFFF" d="M346.89,50.968h10.197c0.277,0,0.5-0.224,0.5-0.5v-3.319c0-0.276-0.223-0.5-0.5-0.5H346.89
			c-0.277,0-0.5,0.224-0.5,0.5v3.319C346.39,50.744,346.613,50.968,346.89,50.968z"/>
		<path fill="#FFFFFF" d="M341.89,83.322h20.477c0.277,0,0.5-0.224,0.5-0.5v-4.239c0-0.276-0.223-0.5-0.5-0.5h-15.258v-6.719h13.178
			c0.277,0,0.5-0.224,0.5-0.5v-4.239c0-0.276-0.223-0.5-0.5-0.5h-13.178v-6.559h14.777c0.277,0,0.5-0.224,0.5-0.5v-4.239
			c0-0.276-0.223-0.5-0.5-0.5H341.89c-0.275,0-0.5,0.224-0.5,0.5v27.995C341.39,83.099,341.615,83.322,341.89,83.322z"/>
		<path fill="#FFFFFF" d="M391.248,54.327h-22.436c-0.277,0-0.5,0.224-0.5,0.5v4.239c0,0.276,0.223,0.5,0.5,0.5h8.338v23.256
			c0,0.276,0.223,0.5,0.5,0.5h4.719c0.277,0,0.5-0.224,0.5-0.5V59.566h8.379c0.275,0,0.5-0.224,0.5-0.5v-4.239
			C391.748,54.551,391.523,54.327,391.248,54.327z"/>
		<path fill="#FFFFFF" d="M190.461,118.608c2.336-1.131,3.729-3.377,3.729-6.17c0-4.626-3.793-7.499-9.898-7.499h-12.158
			c-0.276,0-0.5,0.224-0.5,0.5v27.995c0,0.276,0.224,0.5,0.5,0.5h12.437c6.6,0,10.699-3.134,10.699-8.179
			C195.27,122.333,193.465,119.713,190.461,118.608z M177.352,121.696h6.699c3.369,0,5.379,1.293,5.379,3.46
			c0,3.114-3.369,3.579-5.379,3.579h-6.699V121.696z M184.051,116.537h-6.699v-6.398h6.699c1.605,0,4.299,0.408,4.299,3.14
			C188.35,115.35,186.783,116.537,184.051,116.537z"/>
		<path fill="#FFFFFF" d="M224.849,128.695h-15.258v-6.719h13.178c0.277,0,0.5-0.224,0.5-0.5v-4.239c0-0.276-0.223-0.5-0.5-0.5
			h-13.178v-6.559h14.777c0.277,0,0.5-0.224,0.5-0.5v-4.239c0-0.276-0.223-0.5-0.5-0.5h-19.996c-0.275,0-0.5,0.224-0.5,0.5v27.995
			c0,0.276,0.225,0.5,0.5,0.5h20.477c0.277,0,0.5-0.224,0.5-0.5v-4.239C225.349,128.919,225.126,128.695,224.849,128.695z"/>
		<path fill="#FFFFFF" d="M219.57,101.58c0.277,0,0.5-0.224,0.5-0.5v-3.319c0-0.276-0.223-0.5-0.5-0.5h-10.197
			c-0.277,0-0.5,0.224-0.5,0.5v3.319c0,0.276,0.223,0.5,0.5,0.5H219.57z"/>
		<path fill="#FFFFFF" d="M247.291,104.819c-8.836,0-15.498,6.284-15.498,14.617c0,8.242,6.684,14.698,15.217,14.698
			c3.863,0,8.148-1.434,11.182-3.742c0.125-0.094,0.197-0.241,0.197-0.397v-10.318c0-0.001,0-0.002,0-0.003v-0.77
			c0-0.276-0.225-0.5-0.5-0.5h-9.793c-0.277,0-0.5,0.224-0.5,0.5v4.125c0,0.276,0.223,0.5,0.5,0.5h5.174v3.66
			c-1.898,1.087-4.049,1.706-5.939,1.706c-5.461,0-9.738-4.155-9.738-9.459c0-5.281,4.26-9.418,9.699-9.418
			c2.771,0,5.664,1.146,7.738,3.066c0.104,0.095,0.238,0.141,0.381,0.131c0.141-0.012,0.27-0.082,0.355-0.193l2.68-3.479
			c0.16-0.209,0.131-0.509-0.068-0.682C255.466,106.33,251.322,104.819,247.291,104.819z"/>
		<path fill="#FFFFFF" d="M285.41,128.655h-11.619v-23.216c0-0.276-0.223-0.5-0.5-0.5h-4.719c-0.275,0-0.5,0.224-0.5,0.5v27.995
			c0,0.276,0.225,0.5,0.5,0.5h16.838c0.275,0,0.5-0.224,0.5-0.5v-4.279C285.91,128.879,285.685,128.655,285.41,128.655z"/>
		<path fill="#FFFFFF" d="M276.73,135.311c-1.727,0-2.979,1.287-2.979,3.06c0,0.884,0.346,1.677,0.965,2.233l-1.361,3.083
			c-0.068,0.154-0.055,0.333,0.037,0.475c0.092,0.143,0.25,0.228,0.42,0.228h2.359c0.168,0,0.324-0.084,0.416-0.224l2.275-3.433
			c0.543-0.789,0.807-1.563,0.807-2.362C279.669,136.626,278.406,135.311,276.73,135.311z"/>
		<path fill="#FFFFFF" d="M298.65,104.939h-4.719c-0.275,0-0.5,0.224-0.5,0.5v27.995c0,0.276,0.225,0.5,0.5,0.5h4.719
			c0.277,0,0.5-0.224,0.5-0.5v-27.995C299.15,105.163,298.927,104.939,298.65,104.939z"/>
		<path fill="#FFFFFF" d="M330.488,128.695H315.23v-6.719h13.178c0.277,0,0.5-0.224,0.5-0.5v-4.239c0-0.276-0.223-0.5-0.5-0.5
			H315.23v-6.559h14.777c0.277,0,0.5-0.224,0.5-0.5v-4.239c0-0.276-0.223-0.5-0.5-0.5h-19.996c-0.275,0-0.5,0.224-0.5,0.5v27.995
			c0,0.276,0.225,0.5,0.5,0.5h20.477c0.277,0,0.5-0.224,0.5-0.5v-4.239C330.988,128.919,330.765,128.695,330.488,128.695z"/>
		<path fill="#FFFFFF" d="M369.845,104.939h-5.559c-0.189,0-0.363,0.107-0.447,0.278l-8.752,17.692l-8.789-17.693
			c-0.086-0.17-0.26-0.277-0.449-0.277h-5.598c-0.277,0-0.5,0.224-0.5,0.5v27.995c0,0.276,0.223,0.5,0.5,0.5h4.438
			c0.277,0,0.5-0.224,0.5-0.5v-18.764l7.891,16.064c0.084,0.171,0.258,0.279,0.449,0.279h3.08c0.189,0,0.365-0.108,0.449-0.279
			l7.893-16.073l0.035,18.773c0.002,0.275,0.225,0.499,0.5,0.499h4.359c0.277,0,0.5-0.224,0.5-0.5v-27.995
			C370.345,105.163,370.123,104.939,369.845,104.939z"/>
	</g>
</g>
</svg>
